<?xml version="1.0" encoding="utf-8"?>
<!-- Generator: Adobe Illustrator 19.2.0, SVG Export Plug-In . SVG Version: 6.00 Build 0)  -->
<!DOCTYPE svg PUBLIC "-//W3C//DTD SVG 1.1//EN" "http://www.w3.org/Graphics/SVG/1.1/DTD/svg11.dtd">
<svg version="1.1" id="Warstwa_1" xmlns="http://www.w3.org/2000/svg" xmlns:xlink="http://www.w3.org/1999/xlink" x="0px" y="0px"
	 width="120px" height="79.6px" viewBox="0 0 120 79.6" enable-background="new 0 0 120 79.6" xml:space="preserve">
<path fill="#FFFFFF" d="M56.6,70.1c-4.8,6.4-13,9.6-24.7,9.6c-11.7,0-19.9-3.2-24.7-9.6S0,53.7,0,40.2S2.4,16.5,7.2,9.9
	C12,3.3,20.2,0,31.9,0c11.7,0,19.9,3.3,24.7,9.9c4.8,6.6,7.2,16.7,7.2,30.3S61.4,63.7,56.6,70.1z M19.4,60.1c2.2,4,6.4,5.9,12.5,5.9
	s10.3-2,12.5-5.9c2.2-4,3.3-10.6,3.3-19.9s-1.1-16.1-3.4-20.3c-2.3-4.2-6.4-6.3-12.4-6.3c-6,0-10.2,2.1-12.4,6.3
	c-2.3,4.2-3.4,11-3.4,20.3S17.2,56.2,19.4,60.1z"/>
<g>
	<path fill="#EF3F3F" d="M118.7,21.7c-0.9-4.3-2.5-8.1-4.9-11.3c-2.4-3.2-5.7-5.5-10-6.9C99.4,2.1,94,1.4,87.3,1.4H77.2v13.6h10.2
		c3.8,0,6.8,0.4,9,1.2c2.2,0.8,3.9,2.2,5,4.4c1.1,2.1,1.8,4.5,2.2,7c0.3,2.6,0.5,6,0.5,10.2c0,4.3-0.1,7.6-0.2,10
		c-0.5,6.1-1.9,10.3-4.1,12.7c-2.6,2.9-6.7,4.3-12.3,4.3H77.2v13.6h10.2c6.8,0,12.4-0.8,16.7-2.4c4.4-1.6,7.7-4.2,10-7.8
		c2.3-3.6,3.9-7.7,4.7-12.2c0.8-4.6,1.2-10.3,1.2-17.3C120,31.6,119.6,26,118.7,21.7z"/>
</g>
</svg>
