<?xml version="1.0" encoding="UTF-8" standalone="no"?>
<!-- Generator: Adobe Illustrator 19.2.0, SVG Export Plug-In . SVG Version: 6.00 Build 0)  -->

<svg
   xmlns:dc="http://purl.org/dc/elements/1.1/"
   xmlns:cc="http://creativecommons.org/ns#"
   xmlns:rdf="http://www.w3.org/1999/02/22-rdf-syntax-ns#"
   xmlns:svg="http://www.w3.org/2000/svg"
   xmlns="http://www.w3.org/2000/svg"
   xmlns:sodipodi="http://sodipodi.sourceforge.net/DTD/sodipodi-0.dtd"
   xmlns:inkscape="http://www.inkscape.org/namespaces/inkscape"
   version="1.1"
   id="Warstwa_1"
   x="0px"
   y="0px"
   width="453.39999"
   height="79.699997"
   viewBox="0 0 453.4 79.699994"
   enable-background="new 0 0 453.4 77.3"
   xml:space="preserve"
   inkscape:version="0.48.4 r9939"
   sodipodi:docname="logo-black.svg"><metadata
     id="metadata29"><rdf:RDF><cc:Work
         rdf:about=""><dc:format>image/svg+xml</dc:format><dc:type
           rdf:resource="http://purl.org/dc/dcmitype/StillImage" /></cc:Work></rdf:RDF></metadata><defs
     id="defs27" /><sodipodi:namedview
     pagecolor="#ffffff"
     bordercolor="#666666"
     borderopacity="1"
     objecttolerance="10"
     gridtolerance="10"
     guidetolerance="10"
     inkscape:pageopacity="0"
     inkscape:pageshadow="2"
     inkscape:window-width="640"
     inkscape:window-height="480"
     id="namedview25"
     showgrid="false"
     fit-margin-top="0"
     fit-margin-left="0"
     fit-margin-right="0"
     fit-margin-bottom="0"
     inkscape:zoom="0.9197177"
     inkscape:cx="226.7"
     inkscape:cy="41.049999"
     inkscape:window-x="0"
     inkscape:window-y="0"
     inkscape:window-maximized="0"
     inkscape:current-layer="Warstwa_1" /><g
     id="g3"
     transform="translate(0,-2.046172e-6)"><path
       d="M 269.9,78.3 287.2,1.4 h 29.6 l 17.3,76.9 h -15.6 l -3.1,-13.9 h -26.9 l -3.1,13.9 h -15.5 z m 29.4,-64 -7.8,36.5 h 21 l -7.8,-36.5 h -5.4 z"
       id="path5"
       inkscape:connector-curvature="0"
       style="fill:#ef3f3f" /><path
       d="M 333.4,15.2 V 1.4 H 390 V 15.2 H 369.6 V 78.3 H 354 V 15.2 h -20.6 z"
       id="path7"
       inkscape:connector-curvature="0"
       style="fill:#ef3f3f" /><path
       d="M 389.2,78.3 406.5,1.4 h 29.6 l 17.3,76.9 h -15.6 l -3.1,-13.9 h -26.9 l -3.1,13.9 h -15.5 z m 29.4,-64 -7.8,36.5 h 21 L 424,14.3 h -5.4 z"
       id="path9"
       inkscape:connector-curvature="0"
       style="fill:#ef3f3f" /><path
       d="M 262.6,21.7 C 261.7,17.4 260.1,13.6 257.7,10.4 255.3,7.2 252,4.9 247.7,3.5 243.4,2.1 237.9,1.4 231.3,1.4 H 221.1 V 15 h 10.2 c 3.8,0 6.8,0.4 9,1.2 2.2,0.8 3.9,2.2 5,4.4 1.1,2.1 1.8,4.5 2.2,7 0.3,2.6 0.5,6 0.5,10.2 0,4.3 -0.1,7.6 -0.2,10 -0.5,6.1 -1.9,10.3 -4.1,12.7 -2.6,2.9 -6.7,4.3 -12.3,4.3 h -10.2 v 13.6 h 10.2 c 6.8,0 12.4,-0.8 16.7,-2.4 4.4,-1.6 7.7,-4.2 10,-7.8 2.3,-3.6 3.9,-7.7 4.7,-12.2 0.8,-4.6 1.2,-10.3 1.2,-17.3 -0.1,-7.1 -0.5,-12.7 -1.4,-17 z"
       id="path11"
       inkscape:connector-curvature="0"
       style="fill:#ef3f3f" /></g><g
     id="g13"
     transform="translate(0,-2.046172e-6)"><path
       d="m 56.6,70.1 c -4.8,6.4 -13,9.6 -24.7,9.6 C 20.2,79.7 12,76.5 7.2,70.1 2.4,63.7 0,53.7 0,40.2 0,26.7 2.4,16.5 7.2,9.9 12,3.3 20.2,0 31.9,0 c 11.7,0 19.9,3.3 24.7,9.9 4.8,6.6 7.2,16.7 7.2,30.3 0,13.6 -2.4,23.5 -7.2,29.9 z m -37.2,-10 c 2.2,4 6.4,5.9 12.5,5.9 6.1,0 10.3,-2 12.5,-5.9 2.2,-4 3.3,-10.6 3.3,-19.9 0,-9.3 -1.1,-16.1 -3.4,-20.3 -2.3,-4.2 -6.4,-6.3 -12.4,-6.3 -6,0 -10.2,2.1 -12.4,6.3 -2.3,4.2 -3.4,11 -3.4,20.3 0,9.3 1.1,16 3.3,19.9 z"
       id="path15"
       inkscape:connector-curvature="0"
       style="fill:#2f333a" /><path
       d="M 77.2,78.3 V 1.4 h 26.4 l 18.6,63.4 h 1.1 V 1.4 h 15.6 V 78.3 H 113.2 L 93.9,14.9 H 92.8 V 78.3 H 77.2 z"
       id="path17"
       inkscape:connector-curvature="0"
       style="fill:#2f333a" /></g><rect
     x="155.60001"
     y="1.3999979"
     width="49.799999"
     height="13.6"
     id="rect19"
     style="fill:#2f333a" /><rect
     x="155.60001"
     y="32.999996"
     width="49.799999"
     height="13.6"
     id="rect21"
     style="fill:#2f333a" /><rect
     x="155.60001"
     y="64.699997"
     width="49.799999"
     height="13.6"
     id="rect23"
     style="fill:#2f333a" /></svg>